<?xml version="1.0" encoding="UTF-8"?>
<svg width="879px" height="326px" viewBox="0 0 879 326" version="1.1" xmlns="http://www.w3.org/2000/svg" xmlns:xlink="http://www.w3.org/1999/xlink">
    <!-- Generator: Sketch 63.1 (92452) - https://sketch.com -->
    <title>Shape</title>
    <desc>Created with Sketch.</desc>
    <g id="Page-1" stroke="none" stroke-width="1" fill="none" fill-rule="evenodd">
        <g id="Desktop" transform="translate(-103.000000, -2603.000000)" fill="#DD0031" fill-rule="nonzero">
            <path d="M242.43418,2721.03602 L250.990775,2719.95945 C256.445734,2719.28065 258.979683,2718.25884 260.524825,2713.80379 C267.613691,2681.36003 246.194334,2665.61341 219.7174,2668.94334 C185.862595,2673.18555 155.32102,2701.84376 148.717269,2733.85565 C136.197185,2793.93167 212.607891,2810.9305 205.529347,2858.97519 C202.81993,2877.74075 184.437184,2901.67941 157.968507,2904.9959 C136.95066,2907.63567 127.605496,2893.21771 130.802091,2876.85532 C132.546439,2870.25127 130.304591,2868.76556 125.249078,2869.40096 L113.179014,2870.91973 C106.170657,2871.7938 104.911423,2876.56086 103.944291,2881.63892 C98.3190258,2911.41812 118.27891,2932.67259 151.75388,2928.46964 C191.853244,2923.43291 226.375855,2886.84302 231.227001,2854.32901 C239.754696,2795.12292 167.816333,2776.84089 173.826593,2732.84314 C176.830175,2710.12569 195.991168,2694.61153 213.506901,2692.40467 C230.640735,2690.25774 238.720473,2700.9387 236.003831,2716.87645 C235.235905,2721.22819 237.369377,2721.68072 242.43418,2721.03705 M352.766781,2727.62044 L342.135546,2728.95117 C336.446288,2729.66406 334.068194,2731.69425 332.652073,2737.05642 L288.419945,2903.38725 C287.003823,2908.74943 288.422009,2910.30332 294.115397,2909.59043 L304.746631,2908.24937 C310.440018,2907.53958 312.804694,2905.51456 314.224944,2900.15341 L358.460168,2733.81226 C359.88145,2728.45008 358.456039,2726.90342 352.767813,2727.62044 M359.093913,2684.30665 C351.122552,2685.30883 342.589696,2692.60304 340.599694,2700.11216 C338.51783,2707.97462 343.74365,2713.20248 351.711914,2712.19824 C360.060014,2711.14027 368.125302,2704.25725 370.200973,2696.39479 C372.190975,2688.88568 367.443045,2683.25694 359.094945,2684.30665 M523.921395,2704.75938 C514.053958,2705.99712 495.268671,2710.42428 478.485771,2729.47292 C473.543795,2716.26895 461.112476,2711.95234 444.9819,2714.66339 C434.257772,2716.3578 421.83471,2721.71481 410.554248,2733.84428 L412.346075,2727.05013 C413.770454,2721.68795 412.346075,2720.14645 406.64856,2720.85108 L396.025583,2722.18387 C390.332195,2722.90709 387.966488,2724.92179 386.542109,2730.2943 L342.307917,2896.63235 C340.890763,2901.99453 342.315142,2903.53809 348.005433,2902.82624 L358.636667,2901.49034 C364.325926,2900.78158 366.697826,2898.73693 368.122205,2893.38508 L399.661878,2774.95638 C406.098419,2750.64577 421.842967,2739.69102 435.129946,2738.01831 C449.167304,2736.26501 459.133828,2744.33721 452.895461,2767.92872 L421.618989,2886.27477 C420.199771,2891.63695 421.618989,2893.19395 427.316505,2892.46866 L437.947739,2891.13586 C443.634933,2890.43537 446.005802,2888.40208 447.426052,2883.0461 L478.602405,2765.04927 C485.03585,2740.74486 500.78143,2729.78701 514.067377,2728.11636 C528.109895,2726.3517 538.075387,2734.43939 531.830827,2758.03401 L500.210646,2876.86565 C498.791428,2882.23196 500.214775,2883.77759 505.910227,2883.06263 L516.533204,2881.74327 C522.223494,2881.02315 524.594363,2878.99502 526.014613,2873.62871 L555.835741,2761.5871 C568.422916,2714.03522 550.860737,2701.37366 523.921395,2704.75938 M313.382702,2669.27395 L302.747339,2670.61295 C297.058081,2671.32377 294.688245,2673.35086 293.267994,2678.70994 L248.820146,2846.3529 L232.043439,2911.29827 C230.62422,2916.65425 232.043439,2918.20814 237.73889,2917.48699 L248.365996,2916.15936 C254.063512,2915.44337 256.427155,2913.41525 257.84947,2908.05307 L271.690717,2854.19676 L319.071961,2675.4761 C320.49634,2670.11392 319.067832,2668.5559 313.382702,2669.27395 M663.273137,2713.37502 L671.815282,2695.74183 C674.563921,2690.2691 673.564791,2688.67801 667.808442,2689.40227 L638.133881,2692.14018 C635.096238,2692.52452 635.343956,2691.27231 636.059242,2688.40009 C638.790333,2677.41227 639.212486,2677.39367 641.431628,2668.56313 C643.659026,2659.72328 651.978225,2643.55513 667.475055,2642.72342 C668.975814,2642.64387 699.602026,2638.36549 700.778687,2638.18055 C705.316056,2637.46043 706.677473,2635.51806 708.385696,2631.83066 L716.77921,2609.41903 C718.573102,2605.11069 715.091631,2602.75919 712.03128,2603.01955 C710.89797,2603.11977 656.067637,2610.44188 654.309871,2610.64438 C633.477813,2613.02791 614.774066,2629.91619 607.023586,2658.72007 C606.252564,2661.58507 588.019481,2731.13323 587.263941,2733.98996 L551.667885,2868.42668 C550.253827,2873.78472 551.678206,2875.32829 557.371593,2874.62573 L580.133789,2871.76177 C585.831304,2871.04681 588.198044,2869.02385 589.619327,2863.65961 L625.212286,2729.22909 C625.976084,2726.37443 626.918444,2725.56132 629.956087,2725.17905 L651.519946,2722.23656 C657.26907,2721.52574 660.523466,2718.85498 663.271073,2713.37606 M719.491723,2796.00628 C715.140142,2811.06997 706.061275,2822.61467 690.608827,2826.99533 C671.291978,2832.46496 672.873245,2819.39117 673.474993,2815.76472 C677.512798,2791.59566 703.858648,2780.21317 726.500081,2769.53014 L719.491723,2796.00628 Z M748.075293,2826.63682 L774.671958,2726.17399 C783.758051,2691.85192 762.684467,2674.45326 734.22166,2678.02391 C703.10414,2681.92931 672.374712,2709.29295 665.657424,2738.81592 C664.614943,2744.13161 665.663617,2745.73509 671.351843,2745.01497 L692.609151,2742.34938 C698.678244,2741.59 701.04808,2739.56291 702.088496,2734.24619 C704.928997,2720.76016 716.025734,2712.11042 725.511273,2710.9171 C735.754415,2709.6277 740.508538,2716.63572 738.328619,2724.85463 C736.061999,2733.44031 728.946297,2739.51745 716.519106,2744.88272 C691.66679,2755.59985 656.179111,2766.40376 641.922935,2803.81502 C625.294859,2847.45116 648.18401,2864.40659 675.507314,2860.97542 C694.863385,2858.55366 710.227067,2844.87236 710.227067,2844.87236 C708.806817,2854.37963 710.421113,2855.21857 715.734666,2854.54081 L736.986813,2851.88555 C742.674007,2851.17059 746.188507,2848.99266 746.46719,2843.77719 C746.464094,2839.63623 746.462029,2834.10254 748.074261,2826.63682 M853.023122,2662.4519 C821.364752,2666.815 795.940619,2686.28105 791.004837,2716.5572 C783.658963,2761.65322 846.442079,2759.36784 836.405368,2791.73411 C833.185033,2802.51219 821.993336,2810.14115 813.646269,2811.18052 C804.919368,2812.27569 797.13173,2807.03749 799.970167,2796.30797 C801.394546,2790.93856 799.962942,2789.3919 794.277812,2790.10686 L772.258771,2792.87163 C766.574673,2793.58452 764.199676,2795.61678 762.783554,2800.96966 C757.193383,2822.07329 769.672181,2847.15051 804.941043,2844.07578 C844.124882,2840.6663 866.233721,2817.41677 872.375065,2790.33002 C883.778354,2739.95758 818.919568,2737.24136 826.296406,2710.74146 C828.381366,2702.87487 836.53542,2695.62198 844.88868,2694.58674 C853.620742,2693.48434 858.366608,2699.11411 855.997804,2708.05107 C854.106889,2715.19548 855.997804,2716.34747 861.316517,2715.6759 L881.054487,2713.20145 C886.743746,2712.48649 889.111518,2710.46354 890.533833,2705.09929 C897.637149,2678.28634 880.346427,2658.68701 853.023122,2662.44983 M976.528132,2648.3315 L958.728556,2650.22737 C955.690913,2650.60965 955.122193,2649.98354 955.877734,2647.12268 L963.018207,2620.23327 C964.43949,2614.8711 963.016143,2613.32133 957.325852,2614.03422 L934.559528,2616.88889 C928.859948,2617.60488 926.493208,2619.63093 925.07399,2624.99931 L917.782821,2652.52722 C917.023153,2655.38912 907.747143,2690.41891 906.989538,2693.27977 L888.434422,2763.35796 C874.141089,2817.33928 884.679429,2832.96295 927.951649,2827.52845 C933.641939,2826.81866 936.012808,2824.79054 937.426865,2819.43146 L942.546372,2800.11935 C943.967655,2794.75924 942.441092,2793.56593 936.848856,2793.9327 C916.443079,2796.13646 920.422051,2781.12133 926.200075,2759.31824 L945.823476,2686.43809 C946.582113,2683.58033 947.531699,2682.77445 950.561084,2682.39631 L960.052815,2681.20092 C965.810196,2680.48287 968.635215,2678.41135 971.379725,2672.94586 L980.534972,2654.68139 C983.282578,2649.19523 982.284481,2647.60724 976.528132,2648.3346" id="Shape"></path>
        </g>
    </g>
</svg>