<?xml version="1.0" encoding="UTF-8"?>
<svg width="49px" height="69px" viewBox="0 0 49 69" version="1.1" xmlns="http://www.w3.org/2000/svg" xmlns:xlink="http://www.w3.org/1999/xlink">
    <!-- Generator: Sketch 63.1 (92452) - https://sketch.com -->
    <title>Shape</title>
    <desc>Created with Sketch.</desc>
    <g id="Page-1" stroke="none" stroke-width="1" fill="none" fill-rule="evenodd" opacity="0.5">
        <g id="Desktop" transform="translate(-660.000000, -1173.000000)" fill="#A2A2A2" fill-rule="nonzero">
            <path d="M706.770846,1222.3915 L705.778041,1222.3915 C706.90186,1219.80915 707.078776,1216.76348 706.208856,1213.78969 C705.239321,1210.47433 703.094008,1207.68526 700.302869,1206.01173 C701.673734,1203.78927 702.165753,1200.99032 701.623528,1198.17241 C701.019142,1195.0327 699.198016,1192.3195 696.662849,1190.70398 C697.021782,1187.89738 696.060376,1184.87274 693.968775,1182.38714 C692.174744,1180.25553 689.736323,1178.81279 686.720771,1178.09906 C683.66075,1177.37482 682.496448,1175.08845 682.137992,1174.139 C682.131457,1174.12163 682.12301,1174.10553 682.115997,1174.08847 C682.103087,1174.05723 682.090336,1174.02584 682.075673,1173.99587 C682.066269,1173.97675 682.055272,1173.95874 682.045071,1173.94009 C682.030089,1173.91235 682.015426,1173.88446 681.99885,1173.85785 C681.985461,1173.83633 681.970479,1173.81625 681.956294,1173.79569 C681.941152,1173.77385 681.926648,1173.75138 681.910391,1173.73034 C681.8927,1173.70739 681.873573,1173.68603 681.854766,1173.66419 C681.840103,1173.64714 681.826077,1173.62945 681.810617,1173.61303 C681.789737,1173.59072 681.767423,1173.57 681.745269,1173.54912 C681.730128,1173.53477 681.715624,1173.51979 681.700004,1173.50608 C681.677371,1173.48616 681.653623,1173.46799 681.629875,1173.4495 C681.613139,1173.43627 681.596723,1173.42257 681.579509,1173.41013 C681.556717,1173.39372 681.53281,1173.3789 681.509221,1173.36375 C681.489617,1173.35116 681.470331,1173.33793 681.450089,1173.32614 C681.428254,1173.31339 681.405621,1173.30223 681.383148,1173.2906 C681.359878,1173.27848 681.336926,1173.26589 681.313178,1173.25489 C681.292777,1173.24549 681.271898,1173.23768 681.251178,1173.22923 C681.224242,1173.21824 681.197465,1173.20676 681.170051,1173.1972 C681.150925,1173.1905 681.13132,1173.1854 681.112035,1173.17951 C681.08223,1173.17042 681.052744,1173.16102 681.022302,1173.15353 C681.003175,1173.1489 680.983731,1173.14588 680.964445,1173.14189 C680.933525,1173.13552 680.902763,1173.12898 680.871365,1173.12452 C680.850007,1173.12149 680.828171,1173.12021 680.806655,1173.11798 C680.777168,1173.11495 680.747842,1173.11145 680.718196,1173.10959 C680.692217,1173.10959 680.666078,1173.10959 680.640098,1173.10959 C680.614437,1173.10959 680.588936,1173.10959 680.563115,1173.11081 C680.531876,1173.1124 680.500477,1173.11655 680.469078,1173.12005 C680.44804,1173.12245 680.42716,1173.12372 680.406122,1173.12691 C680.371854,1173.13217 680.337746,1173.14014 680.303478,1173.14763 C680.286583,1173.15145 680.269689,1173.15353 680.252794,1173.15783 C680.250403,1173.15847 680.248172,1173.15926 680.24594,1173.15974 C680.238449,1173.16165 680.230958,1173.1642 680.223467,1173.16628 C677.25573,1173.93371 674.697771,1176.15633 673.377112,1179.11849 C672.281025,1181.57651 672.171528,1184.22373 673.023278,1186.48109 C670.316294,1188.29759 668.376587,1191.25433 667.72072,1194.66245 C667.098005,1197.89763 667.716417,1201.12692 669.381824,1203.65682 C666.160028,1205.51238 663.678733,1208.68891 662.570055,1212.47986 C661.563861,1215.92049 661.809473,1219.4456 663.184322,1222.39134 L661.943196,1222.39134 C661.063076,1222.39134 660.349353,1223.1049 660.349353,1223.98518 C660.349353,1224.86546 661.063076,1225.57903 661.943196,1225.57903 L662.169203,1225.57903 L664.469598,1240.56706 C664.588817,1241.34485 665.257913,1241.91911 666.044953,1241.91911 L702.66877,1241.91911 C703.45581,1241.91911 704.124906,1241.34485 704.244125,1240.56706 L706.54452,1225.57903 L706.770527,1225.57903 C707.650647,1225.57903 708.364371,1224.86546 708.364371,1223.98518 C708.364371,1223.10506 707.650966,1222.3915 706.770846,1222.3915 Z M665.629597,1213.37481 C666.577137,1210.135 668.768672,1207.47472 671.5783,1206.09716 C672.926373,1207.22544 674.611384,1208.17649 676.604167,1208.93181 C676.790169,1209.00226 676.980952,1209.03573 677.168706,1209.03573 C677.811982,1209.03573 678.417961,1208.64332 678.659428,1208.00642 C678.971503,1207.1832 678.557104,1206.26308 677.733883,1205.95116 C675.740623,1205.19568 674.092269,1204.19188 672.967175,1203.04814 C671.074486,1201.12453 670.283302,1198.21496 670.851188,1195.26508 C671.363131,1192.60432 672.892265,1190.32321 675.00873,1188.99426 C677.39567,1190.58874 680.432898,1191.88039 683.684658,1192.67014 C683.81105,1192.7009 683.937601,1192.71557 684.06208,1192.71557 C684.780426,1192.71557 685.432626,1192.22657 685.609702,1191.49755 C685.81754,1190.64213 685.292527,1189.78034 684.437112,1189.57251 C681.316366,1188.81447 678.445694,1187.55853 676.313131,1186.02238 C675.434923,1184.43491 675.420897,1182.36291 676.288905,1180.41683 C677.031955,1178.74983 678.313724,1177.42264 679.839191,1176.68835 C681.152837,1178.93487 683.359514,1180.5794 685.986965,1181.20132 C688.354461,1181.76172 690.167617,1182.82114 691.530035,1184.44001 C693.011672,1186.20041 693.719816,1188.28054 693.517717,1190.17323 C692.212518,1190.35875 690.78571,1190.40513 689.262473,1190.31093 C688.381237,1190.2569 687.627508,1190.92488 687.573158,1191.80341 C687.518968,1192.68194 688.187107,1193.43821 689.065634,1193.49256 C689.641171,1193.52811 690.206029,1193.54596 690.759889,1193.54596 C692.135855,1193.54596 693.441213,1193.43614 694.660822,1193.21779 C696.613758,1194.3338 698.03196,1196.37567 698.493697,1198.7752 C698.973922,1201.26972 698.352801,1203.70687 696.831159,1205.33578 C693.78628,1207.17444 688.749893,1207.94155 683.61931,1207.33988 C682.74684,1207.23596 681.953106,1207.86282 681.850622,1208.73704 C681.747979,1209.61126 682.373562,1210.40325 683.247945,1210.50573 C684.542465,1210.65762 685.826146,1210.73206 687.08082,1210.73206 C691.265775,1210.73206 695.120486,1209.90214 697.950993,1208.36297 C700.405353,1209.54655 702.323544,1211.85954 703.149633,1214.68463 C703.962015,1217.46238 703.583477,1220.28603 702.153162,1222.39166 L676.637,1222.39166 C675.75672,1222.39166 675.043157,1223.10522 675.043157,1223.9855 L675.043157,1230.90916 C675.043157,1231.43656 674.614253,1231.86547 674.08685,1231.86547 C673.559447,1231.86547 673.130544,1231.43656 673.130544,1230.90916 L673.130544,1223.9855 C673.130544,1223.10522 672.416821,1222.39166 671.536701,1222.39166 L666.848569,1222.39166 C665.138375,1219.94097 664.678232,1216.628 665.629597,1213.37481 Z M701.301093,1238.73143 L667.412949,1238.73143 L665.394186,1225.57903 L666.058341,1225.57903 C666.058819,1225.57903 666.059297,1225.57903 666.059776,1225.57903 C666.060413,1225.57903 666.061051,1225.57903 666.061688,1225.57903 L669.942857,1225.57903 L669.942857,1230.90884 C669.942857,1233.19378 671.801757,1235.05283 674.08685,1235.05283 C676.371944,1235.05283 678.230844,1233.19378 678.230844,1230.90884 L678.230844,1225.57903 L702.949287,1225.57903 C702.949924,1225.57903 702.950562,1225.57903 702.951199,1225.57903 C702.951678,1225.57903 702.952156,1225.57903 702.952634,1225.57903 L703.319855,1225.57903 L701.301093,1238.73143 Z" id="Shape"></path>
        </g>
    </g>
</svg>