<?xml version="1.0" encoding="UTF-8"?>
<svg width="65px" height="45px" viewBox="0 0 65 45" version="1.1" xmlns="http://www.w3.org/2000/svg" xmlns:xlink="http://www.w3.org/1999/xlink">
    <!-- Generator: Sketch 63.1 (92452) - https://sketch.com -->
    <title>Shape</title>
    <desc>Created with Sketch.</desc>
    <g id="Page-1" stroke="none" stroke-width="1" fill="none" fill-rule="evenodd" opacity="0.5">
        <g id="Desktop" transform="translate(-745.000000, -1197.000000)" fill="#A2A2A2" fill-rule="nonzero">
            <path d="M808.383992,1223.72806 L808.383992,1223.70602 L795.074732,1223.70602 L795.074732,1208.23137 C795.074732,1207.83384 795.029949,1207.45767 794.941074,1207.09735 C793.601743,1201.34111 783.430679,1197 771.28231,1197 C770.515502,1197 769.723891,1197.01722 768.928835,1197.05236 C754.616454,1197.69171 745,1203.06902 745,1210.43258 C745,1210.43672 745.000689,1210.44154 745.000689,1210.44636 C745.000689,1210.44912 745,1210.45187 745,1210.45394 L745,1225.96097 C745,1226.47493 745.061317,1226.99579 745.181196,1227.50699 C747.195015,1236.16993 760.462249,1241.99023 778.195299,1241.99023 L808.383992,1241.99023 C809.1446,1241.99023 809.761905,1241.37293 809.761905,1240.61232 L809.761905,1225.10598 C809.761905,1224.34468 809.1446,1223.72806 808.383992,1223.72806 Z M778.195299,1223.70602 C772.298521,1223.70602 766.837852,1222.99088 762.212199,1221.72871 L762.212199,1213.98553 C764.365187,1215.5095 767.541277,1216.52778 770.941966,1217.01694 C772.506586,1217.24361 774.118744,1217.35728 775.699899,1217.35728 C776.224195,1217.35728 776.758136,1217.34351 777.286565,1217.32146 C783.914326,1217.02383 789.274407,1215.41649 792.318906,1213.04028 L792.318906,1223.70602 L778.195299,1223.70602 Z M775.873516,1205.79384 C776.016819,1205.81451 776.162188,1205.83518 776.301358,1205.8586 C776.476353,1205.88892 776.644458,1205.92199 776.811185,1205.95643 C776.879392,1205.97021 776.950355,1205.9833 777.017872,1205.99777 C777.228004,1206.04324 777.430557,1206.09216 777.627599,1206.14245 C777.646201,1206.14727 777.665491,1206.15141 777.684093,1206.15692 C779.881175,1206.73633 781.241175,1207.64438 781.525025,1208.38363 L781.525025,1214.11023 C780.101641,1214.34586 778.632097,1214.4988 777.145329,1214.56563 C776.658926,1214.58561 776.164944,1214.5987 775.67923,1214.5987 C774.297183,1214.5987 772.979899,1214.51189 771.748045,1214.35481 C766.409321,1213.67068 762.678622,1211.67408 762.234934,1209.75741 C762.220466,1209.7016 762.212888,1209.63684 762.212888,1209.56036 C762.212888,1208.11976 765.661803,1205.88134 771.903749,1205.603 C772.231003,1205.58715 772.557568,1205.57957 772.874488,1205.57957 C773.828693,1205.58026 774.717447,1205.6402 775.534549,1205.74492 C775.649605,1205.7587 775.760527,1205.7773 775.873516,1205.79384 Z M769.05078,1199.80543 C769.804498,1199.77236 770.555461,1199.75583 771.28231,1199.75583 C780.516393,1199.75583 791.14768,1202.95672 792.261033,1207.73739 C792.300304,1207.89653 792.318906,1208.05775 792.318906,1208.23137 C792.318906,1210.17078 789.361905,1212.34719 784.280851,1213.59145 L784.280851,1208.43185 C784.313232,1208.25273 784.310476,1208.06395 784.266383,1207.87518 C783.658034,1205.27161 780.311773,1203.7311 776.598987,1203.12413 C775.36231,1202.9202 774.083607,1202.8203 772.852442,1202.81893 C772.491429,1202.81893 772.119392,1202.82857 771.752178,1202.8458 C764.499534,1203.1696 759.434326,1205.92956 759.434326,1209.55623 C759.434326,1209.68438 759.444661,1209.80908 759.457062,1209.93102 L759.457062,1220.87579 C753.097994,1218.66492 748.785127,1215.30971 747.864681,1211.35165 C747.79234,1211.04369 747.755826,1210.73504 747.755826,1210.43258 C747.755826,1204.7356 756.513151,1200.36555 769.05078,1199.80543 Z M807.006079,1239.23441 L800.586383,1239.23441 L800.586383,1234.41171 C800.586383,1233.6511 799.969078,1233.0338 799.20847,1233.0338 C798.447862,1233.0338 797.830557,1233.6511 797.830557,1234.41171 L797.830557,1239.23441 L791.983384,1239.23441 L791.983384,1234.41171 C791.983384,1233.6511 791.366079,1233.0338 790.605471,1233.0338 C789.844863,1233.0338 789.227558,1233.6511 789.227558,1234.41171 L789.227558,1239.23441 L783.093779,1239.23441 L783.093779,1234.41171 C783.093779,1233.6511 782.476474,1233.0338 781.715866,1233.0338 C780.955258,1233.0338 780.337953,1233.6511 780.337953,1234.41171 L780.337953,1239.23441 L778.195299,1239.23441 C776.840122,1239.23441 775.509747,1239.19376 774.204863,1239.12004 L774.204863,1234.48267 C774.204863,1233.72207 773.587558,1233.10476 772.82695,1233.10476 C772.066342,1233.10476 771.449037,1233.72207 771.449037,1234.48267 L771.449037,1238.90853 C769.306383,1238.6984 767.253982,1238.39112 765.315258,1237.9936 L765.315258,1233.24806 C765.315258,1232.48746 764.697953,1231.87015 763.937345,1231.87015 C763.176738,1231.87015 762.559433,1232.48746 762.559433,1233.24806 L762.559433,1237.34873 C760.307234,1236.75279 758.247943,1236.028 756.426342,1235.19299 L756.426342,1230.16636 C756.426342,1229.40575 755.809037,1228.78845 755.04843,1228.78845 C754.287822,1228.78845 753.670517,1229.40575 753.670517,1230.16636 L753.670517,1233.73309 C750.533009,1231.80883 748.468207,1229.47465 747.86537,1226.88073 C747.79234,1226.57277 747.755826,1226.26342 747.755826,1225.96097 L747.755826,1216.91566 C747.84539,1217.02039 747.952178,1217.11959 748.045876,1217.22294 C748.047254,1217.22432 748.048632,1217.22569 748.05001,1217.22776 C748.45925,1217.67903 748.90845,1218.11583 749.390719,1218.53953 C749.395542,1218.54367 749.400365,1218.5478 749.405187,1218.55194 C755.013293,1223.46557 765.440648,1226.4832 778.19461,1226.4832 L807.006079,1226.4832 L807.006079,1239.23441 Z" id="Shape"></path>
        </g>
    </g>
</svg>