<?xml version="1.0" encoding="UTF-8"?>
<svg width="73px" height="70px" viewBox="0 0 73 70" version="1.1" xmlns="http://www.w3.org/2000/svg" xmlns:xlink="http://www.w3.org/1999/xlink">
    <!-- Generator: Sketch 63.1 (92452) - https://sketch.com -->
    <title>noun_lose weight_2444866</title>
    <desc>Created with Sketch.</desc>
    <g id="Page-1" stroke="none" stroke-width="1" fill="none" fill-rule="evenodd">
        <g id="Desktop" transform="translate(-549.000000, -1172.000000)" fill="#FFFFFF" fill-rule="nonzero">
            <g id="noun_lose-weight_2444866" transform="translate(549.000000, 1172.000000)">
                <path d="M8.83810058,33.7382783 C8.43207927,33.7382783 8.02605796,33.5834682 7.71678391,33.2730542 C7.09744281,32.6530199 7.09744281,31.6479452 7.71678391,31.027911 L12.0949942,26.6448007 L7.71678391,22.2616905 C7.09744281,21.6416563 7.09744281,20.6365816 7.71678391,20.0165473 C8.335332,19.3965131 9.34086915,19.3965131 9.95941724,20.0165473 L15.4597372,25.523023 C16.0790783,26.1430573 16.0790783,27.148132 15.4597372,27.7681663 L9.95941724,33.274642 C9.6501432,33.5834682 9.24412189,33.7382783 8.83810058,33.7382783 Z" id="Path"></path>
                <path d="M14.3384205,28.2325965 L2.26642364,28.2325965 C1.39094019,28.2325965 0.680402898,27.521264 0.680402898,26.6448007 C0.680402898,25.7683375 1.39094019,25.057005 2.26642364,25.057005 L14.3384205,25.057005 C15.213904,25.057005 15.9244412,25.7683375 15.9244412,26.6448007 C15.9244412,27.521264 15.213904,28.2325965 14.3384205,28.2325965 Z" id="Path"></path>
                <path d="M64.1188535,33.7382783 C63.7128322,33.7382783 63.3068109,33.5834682 62.9975368,33.2730542 L57.4972169,27.7665785 C56.8778758,27.1465442 56.8778758,26.1414695 57.4972169,25.5214352 L62.9975368,20.0149595 C63.6160849,19.3949253 64.6216221,19.3949253 65.2401701,20.0149595 C65.8595112,20.6349938 65.8595112,21.6400685 65.2401701,22.2601027 L60.8619599,26.643213 L65.2401701,31.0263232 C65.8595112,31.6463574 65.8595112,32.6514321 65.2401701,33.2714664 C64.9308961,33.5834682 64.5248748,33.7382783 64.1188535,33.7382783 Z" id="Path"></path>
                <path d="M70.6905304,28.2325965 L58.6185336,28.2325965 C57.7430501,28.2325965 57.0325128,27.521264 57.0325128,26.6448007 C57.0325128,25.7683375 57.7430501,25.057005 58.6185336,25.057005 L70.6905304,25.057005 C71.5660139,25.057005 72.2765512,25.7683375 72.2765512,26.6448007 C72.2765512,27.521264 71.5668069,28.2325965 70.6905304,28.2325965 Z" id="Path"></path>
                <path d="M36.4800631,36.648708 C35.8979934,36.648708 35.3381281,36.3271793 35.0597815,35.7714508 C34.6680344,34.9870797 34.9852385,34.0336083 35.7687327,33.6414228 L35.7703188,33.6406289 C36.55302,33.2484433 37.5054255,33.5660025 37.8987586,34.3511675 C38.2905057,35.1355386 37.9725086,36.08901 37.1890143,36.4819894 C36.9614203,36.5947229 36.7187592,36.648708 36.4800631,36.648708 Z" id="Path"></path>
                <path d="M18.5294803,43.8295143 C18.2384455,43.8295143 17.9442387,43.7493306 17.6801662,43.5810243 C16.9410805,43.1102428 16.7230027,42.1289851 17.1932578,41.3890722 C18.9569129,38.6120174 21.0599764,33.7994085 21.0599764,26.6448007 C21.0599764,13.7550747 14.2123319,3.08429328 14.1425469,2.97791096 C13.6643617,2.24355542 13.8713374,1.25991594 14.604079,0.780401619 C15.3368206,0.301681196 16.3193604,0.507300747 16.7983387,1.24086239 C17.1020616,1.70529265 24.2320179,12.7817559 24.2320179,26.6448007 C24.2320179,34.5639321 21.8593309,39.960056 19.8696678,43.093571 C19.5675309,43.5691158 19.0536602,43.8295143 18.5294803,43.8295143 Z" id="Path"></path>
                <path d="M54.8168418,44.4193804 C54.3101082,44.4193804 53.8128907,44.1772416 53.5052027,43.7271015 C51.3244242,40.5300747 48.7257292,34.9719956 48.7257292,26.6448007 C48.7257292,12.7817559 55.8564784,1.70529265 56.1602014,1.24086239 C56.6391797,0.508094645 57.6217195,0.302475093 58.3544611,0.780401619 C59.0872027,1.25991594 59.2941784,2.24355542 58.8159931,2.97791096 C58.7470012,3.08429328 51.8985637,13.7550747 51.8985637,26.6448007 C51.8985637,34.160632 54.1975007,39.1089975 56.126102,41.9360679 C56.6201474,42.6601027 56.43379,43.6485056 55.7105645,44.143104 C55.4353899,44.32967 55.1245299,44.4193804 54.8168418,44.4193804 Z" id="Path"></path>
                <path d="M52.4877704,13.5851806 L20.4699767,13.5851806 C19.5944932,13.5851806 18.8839559,12.8738481 18.8839559,11.9973848 C18.8839559,11.1209215 19.5944932,10.409589 20.4699767,10.409589 L52.4877704,10.409589 C53.3632538,10.409589 54.0737911,11.1209215 54.0737911,11.9973848 C54.0737911,12.8738481 53.3632538,13.5851806 52.4877704,13.5851806 Z" id="Path"></path>
                <path d="M36.3674556,51.2532534 C23.1400426,51.2532534 17.432747,44.0954701 17.1964299,43.7906133 C16.6587688,43.0983344 16.7840645,42.1011986 17.4755695,41.5629359 C18.1654886,41.025467 19.1591305,41.1493151 19.6967916,41.8368306 C19.9124904,42.1091376 24.7966413,48.0776619 36.3674556,48.0776619 C47.9795064,48.0776619 53.070633,42.067061 53.2815738,41.8114259 C53.837474,41.1374066 54.8350811,41.0365816 55.5107259,41.5907223 C56.1871638,42.1440691 56.2910481,43.1364415 55.7422849,43.8160181 C55.4964517,44.119287 49.5750433,51.2532534 36.3674556,51.2532534 Z" id="Path"></path>
                <path d="M17.9886472,69.3390411 C17.4256099,69.3390411 16.902223,69.0413294 16.6175323,68.5514944 C14.221055,64.4335461 12.9014857,59.9567559 12.9014857,55.944396 C12.9014857,51.3739259 14.5588774,44.6297634 17.3336207,41.2541096 C17.890314,40.5769147 18.889507,40.4800592 19.5659449,41.0373755 C20.2423827,41.5946918 20.33913,42.5950031 19.7824367,43.272198 C17.5635937,45.9714508 16.0727342,52.0042808 16.0727342,55.944396 C16.0727342,59.1541252 17.0774783,62.7520704 18.9140903,66.1618618 L54.0388987,66.1618618 C55.8770967,62.7520704 56.8818408,59.1541252 56.8818408,55.944396 C56.8818408,52.1646482 55.5527555,46.3755448 53.5749876,43.7802927 C53.0436707,43.0832503 53.1776894,42.0869085 53.8731595,41.5549969 C54.5694226,41.0222914 55.5646506,41.157254 56.0959676,41.8535025 C58.8255093,45.4339819 60.0530893,52.2488014 60.0530893,55.944396 C60.0530893,59.9551681 58.7335201,64.4311644 56.3378357,68.5491127 C56.053938,69.0373599 55.5321372,69.3374533 54.9675138,69.3374533 L18.049709,69.3374533 C18.0298838,69.3366594 18.0084725,69.3390411 17.9886472,69.3390411 Z" id="Path"></path>
                <path d="M36.478477,69.3406289 C35.6029936,69.3406289 34.8924563,68.6292964 34.8924563,67.7528331 L34.8924563,60.757005 C34.8924563,59.8805417 35.6029936,59.1692092 36.478477,59.1692092 C37.3539605,59.1692092 38.0644978,59.8805417 38.0644978,60.757005 L38.0644978,67.7528331 C38.0644978,68.6292964 37.3539605,69.3406289 36.478477,69.3406289 Z" id="Path"></path>
                <path d="M36.478477,62.3440068 C36.0724557,62.3440068 35.6664344,62.1891968 35.3563674,61.8787827 L30.5213831,57.0383873 C29.902042,56.4183531 29.902042,55.4132783 30.5213831,54.7924502 C31.1407242,54.1724159 32.1446754,54.1724159 32.7648095,54.7924502 L37.6005867,59.6336395 C38.2199278,60.2536737 38.2199278,61.2587484 37.6005867,61.8795766 C37.2905196,62.1891968 36.8844983,62.3440068 36.478477,62.3440068 Z" id="Path"></path>
                <path d="M36.478477,62.3440068 C36.0724557,62.3440068 35.6672274,62.1891968 35.3571604,61.8795766 C34.7378193,61.2595423 34.7378193,60.2544676 35.3571604,59.6336395 L40.1929376,54.7924502 C40.8122787,54.1732098 41.8162298,54.1724159 42.4363639,54.7924502 C43.055705,55.4124844 43.055705,56.4175592 42.4363639,57.0383873 L37.6013797,61.8787827 C37.2905196,62.1891968 36.8844983,62.3440068 36.478477,62.3440068 Z" id="Path"></path>
            </g>
        </g>
    </g>
</svg>